<svg width="23" height="23" viewBox="0 0 23 23" fill="none" xmlns="http://www.w3.org/2000/svg">
<path d="M4.58125 17.2375C5.5375 16.5063 6.60625 15.9297 7.7875 15.5078C8.96875 15.0859 10.2063 14.875 11.5 14.875C12.7937 14.875 14.0313 15.0859 15.2125 15.5078C16.3938 15.9297 17.4625 16.5063 18.4187 17.2375C19.075 16.4688 19.5859 15.5969 19.9516 14.6219C20.3172 13.6469 20.5 12.6062 20.5 11.5C20.5 9.00625 19.6234 6.88281 17.8703 5.12969C16.1172 3.37656 13.9938 2.5 11.5 2.5C9.00625 2.5 6.88281 3.37656 5.12969 5.12969C3.37656 6.88281 2.5 9.00625 2.5 11.5C2.5 12.6062 2.68281 13.6469 3.04844 14.6219C3.41406 15.5969 3.925 16.4688 4.58125 17.2375ZM11.5 12.625C10.3938 12.625 9.46094 12.2453 8.70156 11.4859C7.94219 10.7266 7.5625 9.79375 7.5625 8.6875C7.5625 7.58125 7.94219 6.64844 8.70156 5.88906C9.46094 5.12969 10.3938 4.75 11.5 4.75C12.6062 4.75 13.5391 5.12969 14.2984 5.88906C15.0578 6.64844 15.4375 7.58125 15.4375 8.6875C15.4375 9.79375 15.0578 10.7266 14.2984 11.4859C13.5391 12.2453 12.6062 12.625 11.5 12.625ZM11.5 22.75C9.94375 22.75 8.48125 22.4547 7.1125 21.8641C5.74375 21.2734 4.55312 20.4719 3.54062 19.4594C2.52812 18.4469 1.72656 17.2563 1.13594 15.8875C0.545312 14.5188 0.25 13.0562 0.25 11.5C0.25 9.94375 0.545312 8.48125 1.13594 7.1125C1.72656 5.74375 2.52812 4.55312 3.54062 3.54062C4.55312 2.52812 5.74375 1.72656 7.1125 1.13594C8.48125 0.545312 9.94375 0.25 11.5 0.25C13.0562 0.25 14.5188 0.545312 15.8875 1.13594C17.2563 1.72656 18.4469 2.52812 19.4594 3.54062C20.4719 4.55312 21.2734 5.74375 21.8641 7.1125C22.4547 8.48125 22.75 9.94375 22.75 11.5C22.75 13.0562 22.4547 14.5188 21.8641 15.8875C21.2734 17.2563 20.4719 18.4469 19.4594 19.4594C18.4469 20.4719 17.2563 21.2734 15.8875 21.8641C14.5188 22.4547 13.0562 22.75 11.5 22.75Z" fill="white"/>
</svg>
