<svg width="67" height="67" viewBox="0 0 67 67" fill="none" xmlns="http://www.w3.org/2000/svg">
<path d="M44.6667 44.6666L33.5 33.5M33.5 33.5L22.3333 44.6666M33.5 33.5V58.625M56.9221 51.3387C59.6449 49.8543 61.7959 47.5054 63.0355 44.6628C64.2751 41.8202 64.5328 38.6457 63.7678 35.6403C63.0029 32.635 61.2589 29.9699 58.8111 28.0658C56.3633 26.1618 53.3512 25.127 50.25 25.125H46.7325C45.8875 21.8566 44.3126 18.8223 42.1261 16.2502C39.9396 13.6782 37.1985 11.6352 34.1089 10.275C31.0192 8.91478 27.6614 8.27269 24.2878 8.39698C20.9143 8.52128 17.6128 9.40873 14.6316 10.9926C11.6504 12.5765 9.06708 14.8156 7.07582 17.5416C5.08455 20.2676 3.73717 23.4096 3.13498 26.7313C2.53279 30.053 2.69146 33.468 3.59905 36.7195C4.50664 39.971 6.13955 42.9745 8.375 45.5041" stroke="#E0953F" stroke-width="4" stroke-linecap="round" stroke-linejoin="round"/>
</svg>
